# xmcd CD database file
#
# Track frame offsets:
#	150
#	11611
#	21325
#	32900
#	48066
#	57600
#	68800
#	79725
#	94620
#	107625
#	120542
#	132700
#	146175
#	158324
#	168254
#
# Disc length: 2380 seconds
#
# Revision: 0
# Processed by: cddbd v1.5.2PL0 Copyright (c) Steve Scherf et al.
# Submitted via: CDex 1.70beta2
#
DISCID=c5094a0f
DTITLE=Christmas Jazz Band - Un noël à la Nouvelle Orléans
DYEAR=1900
DGENRE=Jazz
TTITLE0=1 Piste audio
TTITLE1=2 Piste audio
TTITLE2=3 Piste audio
TTITLE3=4 Piste audio
TTITLE4=5 Piste audio
TTITLE5=6 Piste audio
TTITLE6=7 Piste audio
TTITLE7=8 Piste audio
TTITLE8=9 Piste audio
TTITLE9=10 Piste audio
TTITLE10=11 Piste audio
TTITLE11=12 Piste audio
TTITLE12=13 Piste audio
TTITLE13=14 Piste audio
TTITLE14=Track 15 bis
EXTD=
EXTT0=
EXTT1=
EXTT2=
EXTT3=
EXTT4=
EXTT5=
EXTT6=
EXTT7=
EXTT8=
EXTT9=
EXTT10=
EXTT11=
EXTT12=
EXTT13=
EXTT14=
PLAYORDER=
